<?xml version="1.0" encoding="UTF-8"?>
<svg version="1.1" xmlns="http://www.w3.org/2000/svg" width="190" height="315">
<path d="M0 0 C0.763125 0.20625 1.52625 0.4125 2.3125 0.625 C3.32277029 5.64525078 3.45815011 10.43682503 3.4453125 15.53125 C3.44626923 16.37417603 3.44722595 17.21710205 3.44821167 18.08557129 C3.44888954 19.86059647 3.44706279 21.63562417 3.44287109 23.41064453 C3.43751728 26.11626797 3.44282946 28.82172543 3.44921875 31.52734375 C3.4485579 33.25781286 3.44727659 34.98828187 3.4453125 36.71875 C3.44733673 37.52203735 3.44936096 38.32532471 3.45144653 39.1529541 C3.43376489 43.42163027 3.15863974 47.4203493 2.3125 51.625 C1.6525 51.625 0.9925 51.625 0.3125 51.625 C0.20679688 52.91664062 0.10109375 54.20828125 -0.0078125 55.5390625 C-0.57365027 60.60777768 -1.91089886 65.19021521 -3.5625 70 C-3.81902344 70.79277344 -4.07554687 71.58554688 -4.33984375 72.40234375 C-4.72462891 73.54509766 -4.72462891 73.54509766 -5.1171875 74.7109375 C-5.34647949 75.3920459 -5.57577148 76.0731543 -5.81201172 76.77490234 C-6.80409512 78.87139092 -7.99740687 80.05617779 -9.6875 81.625 C-10.79599124 83.16975388 -11.87712704 84.7343281 -12.9375 86.3125 C-18.4288942 94.18846621 -23.17039371 99.82302675 -31.74609375 104.3984375 C-32.38675781 104.80320312 -33.02742187 105.20796875 -33.6875 105.625 C-33.6875 106.285 -33.6875 106.945 -33.6875 107.625 C-34.3475 107.625 -35.0075 107.625 -35.6875 107.625 C-36.0175 108.285 -36.3475 108.945 -36.6875 109.625 C-37.6775 109.625 -38.6675 109.625 -39.6875 109.625 C-42.35318424 110.39762078 -44.98693467 111.20518781 -47.625 112.0625 C-55.4271609 114.56958501 -55.4271609 114.56958501 -57.79907227 115.07446289 C-59.90824671 115.52511909 -59.90824671 115.52511909 -61.6875 117.625 C-63.84228516 117.76025391 -63.84228516 117.76025391 -66.4765625 117.6015625 C-67.88808594 117.52421875 -67.88808594 117.52421875 -69.328125 117.4453125 C-70.80539063 117.34863281 -70.80539063 117.34863281 -72.3125 117.25 C-73.80136719 117.16492188 -73.80136719 117.16492188 -75.3203125 117.078125 C-77.77674767 116.93640759 -80.23219735 116.78497723 -82.6875 116.625 C-82.6875 117.285 -82.6875 117.945 -82.6875 118.625 C-83.3475 118.625 -84.0075 118.625 -84.6875 118.625 C-84.6875 117.965 -84.6875 117.305 -84.6875 116.625 C-85.42613281 116.45484375 -86.16476563 116.2846875 -86.92578125 116.109375 C-93.22805539 114.60387622 -99.26268051 112.81488606 -105.3125 110.4921875 C-107.42698154 109.72012352 -109.49458986 109.12246573 -111.6875 108.625 C-112.0175 107.305 -112.3475 105.985 -112.6875 104.625 C-113.3475 104.625 -114.0075 104.625 -114.6875 104.625 C-114.8125 96.875 -114.8125 96.875 -113.6875 94.625 C-113.0275 94.625 -112.3675 94.625 -111.6875 94.625 C-111.44644531 94.02816406 -111.20539063 93.43132812 -110.95703125 92.81640625 C-109.43342541 90.18642817 -107.93421368 89.1754498 -105.375 87.5625 C-104.57320313 87.05203125 -103.77140625 86.5415625 -102.9453125 86.015625 C-102.20023437 85.55671875 -101.45515625 85.0978125 -100.6875 84.625 C-99.718125 84.026875 -98.74875 83.42875 -97.75 82.8125 C-96.41713258 82.04509149 -95.06313117 81.31281558 -93.6875 80.625 C-93.3575 79.965 -93.0275 79.305 -92.6875 78.625 C-91.6975 78.625 -90.7075 78.625 -89.6875 78.625 C-87.45970383 77.88988338 -85.25283045 77.09019328 -83.0625 76.25 C-81.89460938 75.80914062 -80.72671875 75.36828125 -79.5234375 74.9140625 C-76.58041678 73.93516543 -76.58041678 73.93516543 -75.6875 71.625 C-75.0275 71.625 -74.3675 71.625 -73.6875 71.625 C-73.3575 70.965 -73.0275 70.305 -72.6875 69.625 C-71.6975 69.625 -70.7075 69.625 -69.6875 69.625 C-67.20862553 68.64319484 -67.20862553 68.64319484 -64.625 67.3125 C-63.30822266 66.66861328 -63.30822266 66.66861328 -61.96484375 66.01171875 C-59.22621198 64.34411278 -58.10565531 62.46131061 -56.6875 59.625 C-58.16867801 59.90627421 -59.64743249 60.20033732 -61.125 60.5 C-61.94871094 60.66242187 -62.77242188 60.82484375 -63.62109375 60.9921875 C-64.30300781 61.20101562 -64.98492187 61.40984375 -65.6875 61.625 C-66.1825 62.615 -66.1825 62.615 -66.6875 63.625 C-67.6775 63.625 -68.6675 63.625 -69.6875 63.625 C-70.0175 64.285 -70.3475 64.945 -70.6875 65.625 C-71.6775 65.625 -72.6675 65.625 -73.6875 65.625 C-73.6875 64.965 -73.6875 64.305 -73.6875 63.625 C-86.73110756 67.48591994 -86.73110756 67.48591994 -99.6875 71.625 C-99.6875 72.285 -99.6875 72.945 -99.6875 73.625 C-100.47125 73.7075 -101.255 73.79 -102.0625 73.875 C-106.80529139 74.85626718 -111.45633639 76.22784795 -115.6875 78.625 C-116.88395583 80.66257491 -116.88395583 80.66257491 -117.6875 82.625 C-119.02083333 82.95833333 -120.35416667 83.29166667 -121.6875 83.625 C-126.91816371 87.07501223 -129.05554814 90.73996035 -131.609375 96.41796875 C-132.6875 98.625 -132.6875 98.625 -134.6875 100.625 C-136.89688555 107.25315665 -136.32788403 114.59204846 -133.6015625 120.94921875 C-132.30968827 123.31765483 -130.73372442 124.87969094 -128.6875 126.625 C-127.841875 127.49125 -126.99625 128.3575 -126.125 129.25 C-123.72904383 131.72973501 -123.72904383 131.72973501 -120.6875 133.625 C-120.0275 133.295 -119.3675 132.965 -118.6875 132.625 C-118.6875 133.945 -118.6875 135.265 -118.6875 136.625 C-117.97722656 136.74746094 -117.26695313 136.86992187 -116.53515625 136.99609375 C-112.62726303 137.85915384 -109.03078186 139.33448377 -105.30859375 140.78515625 C-102.51135371 141.82842412 -102.51135371 141.82842412 -98.6875 141.625 C-98.0275 142.615 -97.3675 143.605 -96.6875 144.625 C-94.78261425 145.58045735 -94.78261425 145.58045735 -92.5546875 146.23046875 C-91.74902344 146.49150391 -90.94335938 146.75253906 -90.11328125 147.02148438 C-89.27152344 147.28251953 -88.42976563 147.54355469 -87.5625 147.8125 C-86.71300781 148.08513672 -85.86351563 148.35777344 -84.98828125 148.63867188 C-82.89085125 149.31032081 -80.7907841 149.97196165 -78.6875 150.625 C-78.3575 149.965 -78.0275 149.305 -77.6875 148.625 C-77.6875 149.615 -77.6875 150.605 -77.6875 151.625 C-75.7075 151.955 -73.7275 152.285 -71.6875 152.625 C-71.6875 153.285 -71.6875 153.945 -71.6875 154.625 C-69.893125 154.9653125 -69.893125 154.9653125 -68.0625 155.3125 C-59.90979195 157.12709321 -51.32874961 159.44912733 -44.6875 164.625 C-42.8466366 165.52765219 -40.99089034 166.40028695 -39.125 167.25 C-29.12666904 172.17000695 -21.32945236 179.63829791 -13.6875 187.625 C-13.0275 188.285 -12.3675 188.945 -11.6875 189.625 C-10.65588392 191.60887708 -9.65226382 193.60776656 -8.6875 195.625 C-8.0275 195.625 -7.3675 195.625 -6.6875 195.625 C-5.74897903 198.27047498 -4.81166441 200.91636768 -3.875 203.5625 C-3.61396484 204.29791016 -3.35292969 205.03332031 -3.08398438 205.79101562 C-2.54944468 207.30224514 -2.02036439 208.81541515 -1.49633789 210.33032227 C-0.96524572 211.83703379 -0.4103432 213.33560383 0.17016602 214.82397461 C2.37889623 220.73382031 2.73749026 226.03554375 2.625 232.3125 C2.62822266 233.22322266 2.63144531 234.13394531 2.63476562 235.07226562 C2.59520408 240.02465182 2.13200907 243.96654061 0.3125 248.625 C-0.6844582 252.36662044 -1.63894061 256.11752872 -2.58984375 259.87109375 C-3.69624381 263.65490321 -5.06432549 267.04106768 -6.6875 270.625 C-7.3475 270.625 -8.0075 270.625 -8.6875 270.625 C-8.92726562 271.346875 -9.16703125 272.06875 -9.4140625 272.8125 C-10.87091449 276.03008721 -12.64700816 278.05703525 -15.0625 280.625 C-17.38435481 283.10992823 -19.629514 285.55025503 -21.71484375 288.23828125 C-23.62444738 290.54871257 -25.43086517 292.10206418 -27.875 293.8125 C-30.78705479 295.77686387 -30.78705479 295.77686387 -32.6875 298.625 C-58.24397191 314.71537694 -90.94985563 315.65490491 -119.6875 309.625 C-120.75097656 309.41230469 -121.81445312 309.19960938 -122.91015625 308.98046875 C-124.55583315 308.65133337 -126.19972371 308.31282449 -127.83984375 307.95703125 C-129.86674156 307.53656459 -129.86674156 307.53656459 -132.6875 307.625 C-132.6875 306.965 -132.6875 306.305 -132.6875 305.625 C-133.5525415 305.42898193 -133.5525415 305.42898193 -134.43505859 305.22900391 C-136.64663392 304.63595845 -138.62786165 303.8714876 -140.7265625 302.9609375 C-141.47164062 302.64382813 -142.21671875 302.32671875 -142.984375 302 C-144.54589152 301.32928149 -146.10577678 300.6547533 -147.6640625 299.9765625 C-148.4065625 299.66203125 -149.1490625 299.3475 -149.9140625 299.0234375 C-150.59033691 298.73130371 -151.26661133 298.43916992 -151.96337891 298.13818359 C-153.7765306 297.38460209 -153.7765306 297.38460209 -155.6875 298.625 C-155.6875 297.965 -155.6875 297.305 -155.6875 296.625 C-156.3475 296.295 -157.0075 295.965 -157.6875 295.625 C-158.49960938 295.15964844 -159.31171875 294.69429688 -160.1484375 294.21484375 C-161.11007813 293.66957031 -162.07171875 293.12429688 -163.0625 292.5625 C-164.01898438 292.01464844 -164.97546875 291.46679688 -165.9609375 290.90234375 C-168.78937853 289.34217704 -168.78937853 289.34217704 -172.6875 289.625 C-172.89375 289.0475 -173.1 288.47 -173.3125 287.875 C-174.62130028 285.33173582 -174.62130028 285.33173582 -177.8125 283.8125 C-180.6875 281.625 -180.6875 281.625 -181.3125 278.25 C-180.18772254 271.72629076 -176.27497867 268.10579312 -171.6875 263.625 C-164.54437753 256.32583149 -164.54437753 256.32583149 -159.6875 247.625 C-151.30393025 245.75168021 -145.14625091 247.49260224 -137.6875 251.625 C-137.21570313 252.12644531 -136.74390625 252.62789062 -136.2578125 253.14453125 C-133.85637927 255.40856905 -131.11081375 256.03677222 -128 257.0625 C-124.0776493 258.3822533 -120.29720798 259.69742095 -116.6875 261.75 C-107.41453669 266.51231519 -97.20868405 266.91120739 -87 267 C-86.0505249 267.01385742 -85.1010498 267.02771484 -84.12280273 267.04199219 C-75.5977961 266.98594058 -65.01410124 265.95160124 -58.6875 259.625 C-57.25113703 258.78970837 -55.81347199 257.95665439 -54.375 257.125 C-48.34674862 253.1255804 -45.7299955 248.07113976 -44.09765625 241.109375 C-43.06172848 233.70656532 -43.94177919 226.7222466 -47.625 220.1875 C-49.55846581 217.69133645 -49.55846581 217.69133645 -51.4375 215.875 C-51.85 215.4625 -52.2625 215.05 -52.6875 214.625 C-52.6875 213.965 -52.6875 213.305 -52.6875 212.625 C-55.15315653 211.34285861 -57.61165289 210.24543721 -60.1875 209.1875 C-63.6875 207.625 -63.6875 207.625 -65.359375 206.2265625 C-68.78116128 203.87264912 -72.52015581 202.75302603 -76.4375 201.4375 C-77.23027344 201.16486328 -78.02304688 200.89222656 -78.83984375 200.61132812 C-80.78686141 199.94277387 -82.73689366 199.28301022 -84.6875 198.625 C-84.6875 199.285 -84.6875 199.945 -84.6875 200.625 C-87.46689573 200.22794347 -88.5227373 199.80525906 -90.45263672 197.69384766 C-93.14876926 195.19799588 -95.14500328 194.64651766 -98.6953125 193.7734375 C-99.84644531 193.47953125 -100.99757813 193.185625 -102.18359375 192.8828125 C-103.97990234 192.44582031 -103.97990234 192.44582031 -105.8125 192 C-108.19160848 191.40967576 -110.56930128 190.81360701 -112.9453125 190.2109375 C-113.9986377 189.9536084 -115.05196289 189.6962793 -116.13720703 189.43115234 C-118.6875 188.625 -118.6875 188.625 -120.6875 186.625 C-123.15617051 185.5208206 -125.61107085 184.48854411 -128.125 183.5 C-128.80626953 183.22285156 -129.48753906 182.94570312 -130.18945312 182.66015625 C-133.16590831 181.47657074 -135.45549028 180.625 -138.6875 180.625 C-140.04323748 179.31445377 -141.37362831 177.97751497 -142.6875 176.625 C-146.17208668 174.18578932 -147.30822472 173.625 -151.6875 173.625 C-152.72185556 171.97943434 -153.71513513 170.3079392 -154.6875 168.625 C-157.34974988 166.18932458 -159.71123578 164.07355383 -163 162.5625 C-163.556875 162.253125 -164.11375 161.94375 -164.6875 161.625 C-164.82800781 161.02558594 -164.96851563 160.42617187 -165.11328125 159.80859375 C-165.79357567 157.22162381 -166.88866705 155.82355425 -168.5625 153.75 C-174.6875 145.84344952 -174.6875 145.84344952 -174.6875 140.625 C-175.3475 140.295 -176.0075 139.965 -176.6875 139.625 C-177.50390625 137.734375 -177.50390625 137.734375 -178.25 135.375 C-178.49878906 134.60671875 -178.74757812 133.8384375 -179.00390625 133.046875 C-184.84950641 112.33674872 -181.28406386 89.13044951 -171.17578125 70.515625 C-169.62353197 67.80040224 -169.62353197 67.80040224 -169.16796875 65.296875 C-169.00941406 64.74515625 -168.85085937 64.1934375 -168.6875 63.625 C-167.2025 63.13 -167.2025 63.13 -165.6875 62.625 C-164.313939 61.13437427 -164.313939 61.13437427 -163.125 59.3125 C-162.691875 58.6834375 -162.25875 58.054375 -161.8125 57.40625 C-160.60760215 55.58544666 -160.60760215 55.58544666 -159.625 53.3125 C-158.06460021 50.50378037 -155.42427163 49.92837655 -152.5625 48.75 C-150.54233904 47.78999843 -150.54233904 47.78999843 -149.91796875 45.78125 C-148.21777112 42.80185605 -146.05632016 41.73509694 -143.125 40 C-139.24818553 37.93918691 -139.24818553 37.93918691 -136.6875 34.625 C-134.9375 33.9140625 -134.9375 33.9140625 -132.6875 33.25 C-127.83977743 31.73265505 -123.28780802 29.76746024 -118.6875 27.625 C-118.6875 27.295 -118.6875 26.965 -118.6875 26.625 C-114.75125874 25.66144802 -110.81328996 24.70514082 -106.875 23.75 C-105.77478516 23.48058594 -104.67457031 23.21117188 -103.54101562 22.93359375 C-97.29510814 21.42278427 -91.0703157 20.08911152 -84.7277832 19.05029297 C-82.70237536 18.82252014 -82.70237536 18.82252014 -81.6875 17.625 C-79.23887452 17.29886011 -76.80542573 17.02893537 -74.34765625 16.79296875 C-72.80169865 16.63526311 -71.25580237 16.47695552 -69.70996094 16.31811523 C-68.89877808 16.23584686 -68.08759521 16.15357849 -67.25183105 16.06881714 C-44.0381678 13.76142723 -44.0381678 13.76142723 -21.67333984 7.38549805 C-17.40950942 5.75261979 -13.07483924 4.30536313 -8.76171875 2.80859375 C-1.07660484 -0.15022393 -1.07660484 -0.15022393 0 0 Z " fill="#22BE96" transform="translate(186.6875,0.375)"/>
<path d="M0 0 C0 0.66 0 1.32 0 2 C-1.175625 2.12375 -1.175625 2.12375 -2.375 2.25 C-7.11779139 3.23126718 -11.76883639 4.60284795 -16 7 C-17.19645583 9.03757491 -17.19645583 9.03757491 -18 11 C-19.33333333 11.33333333 -20.66666667 11.66666667 -22 12 C-24.82961866 14.20710256 -27.46323379 16.46323379 -30 19 C-30.33 17.35 -30.66 15.7 -31 14 C-29.71372289 12.82739389 -28.42080217 11.6620717 -27.125 10.5 C-26.40570313 9.8503125 -25.68640625 9.200625 -24.9453125 8.53125 C-23 7 -23 7 -21 7 C-20.319375 6.236875 -19.63875 5.47375 -18.9375 4.6875 C-13.29941302 -0.47074979 -7.33666558 -1.71709194 0 0 Z " fill="#29AF77" transform="translate(87,72)"/>
<path d="M0 0 C0.33 0 0.66 0 1 0 C1.02479204 5.44433259 1.04290359 10.88863203 1.05493164 16.33300781 C1.05994811 18.18359958 1.06676282 20.0341874 1.07543945 21.88476562 C1.0876229 24.55079117 1.09325528 27.21676412 1.09765625 29.8828125 C1.10281754 30.70492218 1.10797882 31.52703186 1.11329651 32.37405396 C1.11371514 36.69923396 0.86576406 40.74008134 0 45 C-0.66 45 -1.32 45 -2 45 C-2 46.65 -2 48.3 -2 50 C-3.32998389 47.80629637 -4.05998898 46.538081 -3.77113342 43.94714355 C-3.56572433 43.2369104 -3.36031525 42.52667725 -3.14868164 41.79492188 C-1.9852119 37.22435207 -1.67470015 32.98218789 -1.62109375 28.28125 C-1.60409927 27.49729858 -1.5871048 26.71334717 -1.56959534 25.90563965 C-1.51707245 23.43717177 -1.47639075 20.96871718 -1.4375 18.5 C-1.39354186 16.00279347 -1.3469676 13.50571367 -1.29469299 11.00866699 C-1.26275956 9.46294844 -1.235862 7.91711609 -1.21446228 6.37121582 C-1.1118809 1.1118809 -1.1118809 1.1118809 0 0 Z " fill="#1C815D" transform="translate(189,7)"/>
<path d="M0 0 C0.99 0.33 1.98 0.66 3 1 C1.64845995 5.42322197 -0.09726104 7.51643884 -4 10 C-5.5778125 10.2165625 -5.5778125 10.2165625 -7.1875 10.4375 C-8.115625 10.623125 -9.04375 10.80875 -10 11 C-10.71247732 12.6476038 -11.37400383 14.31763529 -12 16 C-17.18918919 20 -17.18918919 20 -20 20 C-20 20.66 -20 21.32 -20 22 C-21.32 22.33 -22.64 22.66 -24 23 C-21.54385965 17.35087719 -21.54385965 17.35087719 -19.0625 15.75 C-18.381875 15.5025 -17.70125 15.255 -17 15 C-14.86644906 14.18330183 -14.86644906 14.18330183 -13 13 C-12.74734375 12.3915625 -12.4946875 11.783125 -12.234375 11.15625 C-10.52163428 8.1643738 -8.32659215 7.10629565 -5.375 5.375 C-3.55186756 4.30174209 -1.7503028 3.18833267 0 2 C0 1.34 0 0.68 0 0 Z " fill="#208761" transform="translate(49,35)"/>
<path d="M0 0 C0.495 0.99 0.495 0.99 1 2 C-6.05193399 3.67361567 -12.95677432 4.37231641 -20.19140625 4.75390625 C-22.90253849 4.68830967 -22.90253849 4.68830967 -24 6 C-28.91522262 6.3709602 -31.24290923 6.15164348 -35 3 C-30.47983634 2.49382065 -25.95877401 1.99615563 -21.4375 1.5 C-20.16068359 1.35691406 -18.88386719 1.21382812 -17.56835938 1.06640625 C-16.32763672 0.93105469 -15.08691406 0.79570312 -13.80859375 0.65625 C-12.67220459 0.53056641 -11.53581543 0.40488281 -10.36499023 0.27539062 C-6.8946773 -0.0086196 -3.48030728 -0.04642989 0 0 Z " fill="#208E63" transform="translate(140,15)"/>
<path d="M0 0 C-0.11369211 2.45933991 -0.24042651 4.9167909 -0.375 7.375 C-0.42140625 8.42300781 -0.42140625 8.42300781 -0.46875 9.4921875 C-0.7734375 14.7734375 -0.7734375 14.7734375 -3 17 C-3.66 13.04 -4.32 9.08 -5 5 C-9.455 5.495 -9.455 5.495 -14 6 C-14.33 5.34 -14.66 4.68 -15 4 C-13.4470724 3.12855131 -11.88214564 2.27846343 -10.3125 1.4375 C-9.44238281 0.96183594 -8.57226562 0.48617187 -7.67578125 -0.00390625 C-4.61671247 -1.14268368 -3.08136961 -0.92718689 0 0 Z " fill="#2AB57F" transform="translate(189,1)"/>
<path d="M0 0 C2.48850674 2.48850674 2.2461233 3.9621006 2.27789307 7.35913086 C2.2738446 8.08624268 2.26979614 8.81335449 2.265625 9.5625 C2.26753845 10.30959229 2.2694519 11.05668457 2.27142334 11.82641602 C2.27278498 13.40674171 2.26909 14.98707858 2.26074219 16.56738281 C2.250042 18.99048922 2.26063779 21.41285423 2.2734375 23.8359375 C2.2721159 25.36979331 2.2695535 26.90364865 2.265625 28.4375 C2.26967346 29.16461182 2.27372192 29.89172363 2.27789307 30.64086914 C2.22992361 35.77007639 2.22992361 35.77007639 0 38 C-0.90717302 34.12987558 -1.12879559 30.5335023 -1.1328125 26.5625 C-1.13410156 25.33789062 -1.13539063 24.11328125 -1.13671875 22.8515625 C-1.13091797 20.94503906 -1.13091797 20.94503906 -1.125 19 C-1.12886719 17.72898437 -1.13273438 16.45796875 -1.13671875 15.1484375 C-1.13542969 13.92382812 -1.13414062 12.69921875 -1.1328125 11.4375 C-1.13168457 10.32246094 -1.13055664 9.20742187 -1.12939453 8.05859375 C-1.01080192 5.25533302 -0.63904595 2.7262576 0 0 Z " fill="#29B880" transform="translate(7,93)"/>
<path d="M0 0 C0.75 1.6875 0.75 1.6875 1 4 C-0.2879728 5.70196405 -1.62986661 7.36345179 -3 9 C-4.36210488 11.94214655 -5.59220945 14.89089932 -6.7109375 17.93359375 C-8.55769192 22.70934041 -8.55769192 22.70934041 -11.1875 24.4375 C-11.785625 24.623125 -12.38375 24.80875 -13 25 C-11.25495231 19.41921946 -8.85166786 14.2927409 -6.33984375 9.0234375 C-4.96705549 6.17254491 -4.96705549 6.17254491 -4.4453125 3.6796875 C-4 2 -4 2 -1.9375 0.75 C-1.298125 0.5025 -0.65875 0.255 0 0 Z " fill="#1F966B" transform="translate(22,62)"/>
<path d="M0 0 C0.66 0.33 1.32 0.66 2 1 C1.67 1.66 1.34 2.32 1 3 C1.66 3.33 2.32 3.66 3 4 C1.68 5.65 0.36 7.3 -1 9 C0.36983503 12.16115776 0.9890638 12.9927092 4 15 C4 15.66 4 16.32 4 17 C4.66 17 5.32 17 6 17 C6.33 17.99 6.66 18.98 7 20 C6.01 20.33 5.02 20.66 4 21 C3.690625 20.13375 3.690625 20.13375 3.375 19.25 C2.06619972 16.70673582 2.06619972 16.70673582 -1.125 15.1875 C-4 13 -4 13 -4.625 9.625 C-3.91838489 5.52663234 -2.53877475 3.25280514 0 0 Z " fill="#1A7F64" transform="translate(10,269)"/>
<path d="M0 0 C0.309375 0.639375 0.61875 1.27875 0.9375 1.9375 C1.8345163 3.93610821 1.8345163 3.93610821 3 5 C3.25292226 8.38830809 3.18523407 11.79087724 3.1875 15.1875 C3.19974609 16.13431641 3.21199219 17.08113281 3.22460938 18.05664062 C3.23518712 23.10927685 3.01164182 27.26906371 1 32 C-0.0625 30.1875 -0.0625 30.1875 -1 28 C-0.505 26.515 -0.505 26.515 0 25 C0.09130522 23.62732077 0.13065525 22.25071082 0.1328125 20.875 C0.13410156 20.08609375 0.13539063 19.2971875 0.13671875 18.484375 C0.13285156 17.66453125 0.12898437 16.8446875 0.125 16 C0.12886719 15.18015625 0.13273438 14.3603125 0.13671875 13.515625 C0.13542969 12.72671875 0.13414062 11.9378125 0.1328125 11.125 C0.13168457 10.40570313 0.13055664 9.68640625 0.12939453 8.9453125 C0.06777378 6.78237639 0.06777378 6.78237639 -1 4 C-0.5625 1.8125 -0.5625 1.8125 0 0 Z " fill="#0F6451" transform="translate(186,217)"/>
<path d="M0 0 C0 0.66 0 1.32 0 2 C-0.825 2.103125 -1.65 2.20625 -2.5 2.3125 C-5.29111387 2.86075451 -7.40801239 3.50576659 -10 4.5625 C-13.44706815 5.9280693 -16.26108888 6.28041833 -20 6 C-14.93849787 -0.38189399 -7.59385442 -1.77728508 0 0 Z " fill="#2ABD83" transform="translate(87,72)"/>
<path d="M0 0 C-2.5 2 -2.5 2 -5 4 C-5.886875 4.721875 -6.77375 5.44375 -7.6875 6.1875 C-10 8 -10 8 -12 9 C-12.33 9.66 -12.66 10.32 -13 11 C-13.99 11 -14.98 11 -16 11 C-16.680625 11.20625 -17.36125 11.4125 -18.0625 11.625 C-18.701875 11.74875 -19.34125 11.8725 -20 12 C-20.66 11.34 -21.32 10.68 -22 10 C-15.375 7 -15.375 7 -12 7 C-11.67 6.01 -11.34 5.02 -11 4 C-9.2578125 2.578125 -9.2578125 2.578125 -7.125 1.25 C-6.42632812 0.80140625 -5.72765625 0.3528125 -5.0078125 -0.109375 C-3 -1 -3 -1 0 0 Z " fill="#21936A" transform="translate(163,99)"/>
<path d="M0 0 C1.02544922 -0.00128906 2.05089844 -0.00257812 3.10742188 -0.00390625 C4.72680664 0.00189453 4.72680664 0.00189453 6.37890625 0.0078125 C7.45462891 0.00394531 8.53035156 0.00007813 9.63867188 -0.00390625 C11.1787793 -0.00197266 11.1787793 -0.00197266 12.75 0 C13.69673584 0.00112793 14.64347168 0.00225586 15.61889648 0.00341797 C17.94140625 0.1328125 17.94140625 0.1328125 19.94140625 1.1328125 C19.61140625 1.7928125 19.28140625 2.4528125 18.94140625 3.1328125 C12.01140625 2.8028125 5.08140625 2.4728125 -2.05859375 2.1328125 C-2.05859375 2.7928125 -2.05859375 3.4528125 -2.05859375 4.1328125 C-2.71859375 4.1328125 -3.37859375 4.1328125 -4.05859375 4.1328125 C-4.05859375 3.4728125 -4.05859375 2.8128125 -4.05859375 2.1328125 C-4.71859375 1.8028125 -5.37859375 1.4728125 -6.05859375 1.1328125 C-4.37836375 -0.5474175 -2.30083447 0.00274446 0 0 Z " fill="#148661" transform="translate(106.05859375,114.8671875)"/>
<path d="M0 0 C-0.33 0.99 -0.66 1.98 -1 3 C-3.31 3.33 -5.62 3.66 -8 4 C-8.33 4.99 -8.66 5.98 -9 7 C-11.31 7 -13.62 7 -16 7 C-16.33 6.34 -16.66 5.68 -17 5 C-5.86363636 0 -5.86363636 0 0 0 Z " fill="#26A175" transform="translate(174,6)"/>
<path d="M0 0 C0.66 0.33 1.32 0.66 2 1 C1.00809675 3.56508315 0.4033801 4.77027581 -2.0234375 6.15234375 C-4.36529526 6.93425971 -6.55573168 7.63531343 -9 8 C-11.5625 6.6875 -11.5625 6.6875 -13 5 C-12.34 5 -11.68 5 -11 5 C-10.67 4.34 -10.34 3.68 -10 3 C-9.01 3 -8.02 3 -7 3 C-5.824375 2.484375 -4.64875 1.96875 -3.4375 1.4375 C-2.303125 0.963125 -1.16875 0.48875 0 0 Z " fill="#24A16D" transform="translate(124,67)"/>
<path d="M0 0 C-1.8125 2 -1.8125 2 -4 4 C-4.99 4 -5.98 4 -7 4 C-7.33 4.66 -7.66 5.32 -8 6 C-8.99 6 -9.98 6 -11 6 C-12.6875 4 -12.6875 4 -14 2 C-9.1658483 -0.68563983 -5.38891969 -1.38572221 0 0 Z " fill="#1BA584" transform="translate(124,60)"/>
<path d="M0 0 C5.80342274 1.48805711 10.17590879 4.59097555 15 8 C14.67 8.66 14.34 9.32 14 10 C12.88625 9.67 11.7725 9.34 10.625 9 C7.30540283 7.911357 7.30540283 7.911357 5 8 C3.94228261 6.36935236 2.94726954 4.69719127 2 3 C1.34 2.01 0.68 1.02 0 0 Z " fill="#1B8A6B" transform="translate(30,166)"/>
<path d="M0 0 C2.64 0 5.28 0 8 0 C6.625 2 6.625 2 5 4 C4.34 4 3.68 4 3 4 C3 4.66 3 5.32 3 6 C1.02 6.66 -0.96 7.32 -3 8 C-3 5 -3 5 -1 2 C-0.67 1.34 -0.34 0.68 0 0 Z " fill="#219F72" transform="translate(130,60)"/>
<path d="M0 0 C0.33 0 0.66 0 1 0 C1.02697137 2.60423592 1.04682489 5.20819244 1.0625 7.8125 C1.07087891 8.55048828 1.07925781 9.28847656 1.08789062 10.04882812 C1.10259828 13.29922068 1.03531702 15.89404895 0 19 C0.04125 19.845625 0.0825 20.69125 0.125 21.5625 C0.08375 22.366875 0.0425 23.17125 0 24 C-0.99 24.66 -1.98 25.32 -3 26 C-2.67 22.04 -2.34 18.08 -2 14 C-1.34 14 -0.68 14 0 14 C-0.08378906 13.32453125 -0.16757813 12.6490625 -0.25390625 11.953125 C-0.35574219 11.06109375 -0.45757812 10.1690625 -0.5625 9.25 C-0.66691406 8.36828125 -0.77132812 7.4865625 -0.87890625 6.578125 C-0.99456676 4.11567549 -0.73638695 2.33461936 0 0 Z " fill="#1EC7B0" transform="translate(186,226)"/>
<path d="M0 0 C2.475 0.495 2.475 0.495 5 1 C4.938125 1.70125 4.87625 2.4025 4.8125 3.125 C4.81906142 6.14406649 4.81906142 6.14406649 6.5625 9.0625 C8.13486303 12.27558967 8.04116106 12.79377554 7 16 C6.32591692 14.73308493 5.66099503 13.46129251 5 12.1875 C4.443125 11.12595703 4.443125 11.12595703 3.875 10.04296875 C3 8 3 8 3 5 C2.34 4.67 1.68 4.34 1 4 C0.375 1.9375 0.375 1.9375 0 0 Z " fill="#1E8B65" transform="translate(9,136)"/>
<path d="M0 0 C0.66 0 1.32 0 2 0 C2.08333357 4.8333472 1.95261487 9.23692563 1 14 C0.67 14 0.34 14 0 14 C-1.33257403 4.58997722 -1.33257403 4.58997722 0 0 Z M-2 14 C-1.01 14.495 -1.01 14.495 0 15 C0 17.31 0 19.62 0 22 C-0.66 21.67 -1.32 21.34 -2 21 C-2 18.69 -2 16.38 -2 14 Z " fill="#29C18C" transform="translate(186,36)"/>
<path d="M0 0 C1.299375 0.04253906 1.299375 0.04253906 2.625 0.0859375 C3.49125 0.09882813 4.3575 0.11171875 5.25 0.125 C7.625 0.4609375 7.625 0.4609375 10.625 2.4609375 C8.89692682 2.79989406 7.16748026 3.13185275 5.4375 3.4609375 C3.99310547 3.739375 3.99310547 3.739375 2.51953125 4.0234375 C-0.1684206 4.42971362 -2.66271019 4.54027322 -5.375 4.4609375 C-3.05061521 0.59206019 -3.05061521 0.59206019 0 0 Z " fill="#1A9E83" transform="translate(117.375,307.5390625)"/>
<path d="M0 0 C0.99 0.33 1.98 0.66 3 1 C1.66087415 5.38259368 -0.12225036 7.54093925 -4 10 C-4.99 9.67 -5.98 9.34 -7 9 C-5.66757255 5.00271766 -3.43722554 4.26710621 0 2 C0 1.34 0 0.68 0 0 Z " fill="#219668" transform="translate(49,35)"/>
<path d="M0 0 C0 3.78405089 -1.1678033 5.11032647 -3.3125 8.1875 C-3.92738281 9.08855469 -4.54226562 9.98960937 -5.17578125 10.91796875 C-5.77777344 11.60503906 -6.37976563 12.29210937 -7 13 C-7.99 13 -8.98 13 -10 13 C-8.56501627 9.79111679 -6.78256013 7.42193016 -4.4375 4.8125 C-3.81746094 4.11769531 -3.19742187 3.42289062 -2.55859375 2.70703125 C-1.72141231 1.79011824 -0.8779528 0.8779528 0 0 Z " fill="#1A795E" transform="translate(23,255)"/>
<path d="M0 0 C4.83628305 0.99043705 9.47618873 1.95698846 14 4 C13.67 4.66 13.34 5.32 13 6 C8.15604817 6.56987669 5.86680877 4.74973068 2 2 C1.34 2 0.68 2 0 2 C0 1.34 0 0.68 0 0 Z " fill="#1B896F" transform="translate(124,158)"/>
<path d="M0 0 C3.96 1.98 7.92 3.96 12 6 C7.74938644 7.41687119 5.28148375 6.19320039 1 5 C0.67 3.35 0.34 1.7 0 0 Z " fill="#199B80" transform="translate(138,163)"/>
<path d="M0 0 C0.2475 0.53625 0.495 1.0725 0.75 1.625 C2.74875251 5.42262977 4.95946005 8.95946005 8 12 C7.34 12 6.68 12 6 12 C5.67 12.66 5.34 13.32 5 14 C-0.74797347 7.66249079 -0.74797347 7.66249079 -1 3 C-0.67 2.01 -0.34 1.02 0 0 Z " fill="#1F956C" transform="translate(50,115)"/>
<path d="M0 0 C1.40742022 2.81484045 0.66652164 4.56936113 0.0625 7.625 C-0.13214844 8.62789062 -0.32679687 9.63078125 -0.52734375 10.6640625 C-0.68332031 11.43492188 -0.83929688 12.20578125 -1 13 C-1.99 13 -2.98 13 -4 13 C-4.125 5.25 -4.125 5.25 -3 3 C-2.34 3 -1.68 3 -1 3 C-0.67 2.01 -0.34 1.02 0 0 Z " fill="#1B8356" transform="translate(76,92)"/>
<path d="M0 0 C-0.33 0.99 -0.66 1.98 -1 3 C-6.37305699 3.96891192 -6.37305699 3.96891192 -9 4 C-11 2.5625 -11 2.5625 -12 1 C-3.96428571 -1.27678571 -3.96428571 -1.27678571 0 0 Z " fill="#218C5F" transform="translate(80,26)"/>
<path d="M0 0 C0.33 0.66 0.66 1.32 1 2 C-2.68400584 3.23104155 -5.91474976 2.90767252 -9.75 2.5625 C-10.92046875 2.46066406 -12.0909375 2.35882812 -13.296875 2.25390625 C-14.63492188 2.12822266 -14.63492188 2.12822266 -16 2 C-16 1.67 -16 1.34 -16 1 C-10.62915894 0.31798844 -5.41499441 -0.11521265 0 0 Z " fill="#1D7E57" transform="translate(140,15)"/>
<path d="M0 0 C0.66 0.33 1.32 0.66 2 1 C1.67 1.66 1.34 2.32 1 3 C1.66 3.33 2.32 3.66 3 4 C1.71937515 5.7074998 0.38232443 7.37373596 -1 9 C-1.66 9 -2.32 9 -3 9 C-3.33 9.66 -3.66 10.32 -4 11 C-3.56179109 6.44262737 -3.14958831 3.42346555 0 0 Z " fill="#1FA178" transform="translate(10,269)"/>
<path d="M0 0 C0.99 0.66 1.98 1.32 3 2 C1.93222008 4.13555983 0.70872563 6.10407721 -0.5625 8.125 C-1.01753906 8.84945312 -1.47257813 9.57390625 -1.94140625 10.3203125 C-2.46541016 11.15175781 -2.46541016 11.15175781 -3 12 C-3.99 11.01 -4.98 10.02 -6 9 C-5.01 8.67 -4.02 8.34 -3 8 C-2.26676204 5.98491642 -2.26676204 5.98491642 -2 4 C-1.34 4 -0.68 4 0 4 C0 2.68 0 1.36 0 0 Z " fill="#1B8F68" transform="translate(177,75)"/>
<path d="M0 0 C5.0302076 0.52537724 10.01885239 1.10594786 15 2 C15 2.33 15 2.66 15 3 C13.06403108 3.22211116 11.12610672 3.42722992 9.1875 3.625 C7.56908203 3.79902344 7.56908203 3.79902344 5.91796875 3.9765625 C3 4 3 4 0 2 C0 1.34 0 0.68 0 0 Z " fill="#21C5A4" transform="translate(82,309)"/>
<path d="M0 0 C5.52631579 5.52631579 5.52631579 5.52631579 7 9 C7 9.99 7 10.98 7 12 C4.04449934 9.20005201 1.44172459 6.25563278 -1 3 C-0.67 2.01 -0.34 1.02 0 0 Z " fill="#167969" transform="translate(174,191)"/>
<path d="M0 0 C0.33 0.66 0.66 1.32 1 2 C3.11327425 2.90725434 3.11327425 2.90725434 5.5625 3.625 C6.38878906 3.88539063 7.21507812 4.14578125 8.06640625 4.4140625 C9.02353516 4.70410156 9.02353516 4.70410156 10 5 C9.67 5.66 9.34 6.32 9 7 C8.401875 6.835 7.80375 6.67 7.1875 6.5 C4.88655664 5.8885876 4.88655664 5.8885876 2 6 C-0.1875 3.5 -0.1875 3.5 -2 1 C-1.34 0.67 -0.68 0.34 0 0 Z " fill="#15684E" transform="translate(46,175)"/>
<path d="M0 0 C0 0.66 0 1.32 0 2 C-0.86625 2.144375 -1.7325 2.28875 -2.625 2.4375 C-4.295625 2.7159375 -4.295625 2.7159375 -6 3 C-8 3.33333333 -10 3.66666667 -12 4 C-11.34 3.67 -10.68 3.34 -10 3 C-10 2.34 -10 1.68 -10 1 C-6.1496895 -1.56687367 -4.41430237 -0.83288724 0 0 Z " fill="#1A7C59" transform="translate(87,72)"/>
<path d="M0 0 C2.76276177 0.52268466 5.3260876 1.10869587 8 2 C8 2.66 8 3.32 8 4 C4.18510326 5.46726798 1.70988378 4.43336419 -2 3 C-1.34 2.67 -0.68 2.34 0 2 C0 1.34 0 0.68 0 0 Z " fill="#1FA27E" transform="translate(57,180)"/>
<path d="M0 0 C-0.6875 1.9375 -0.6875 1.9375 -2 4 C-4.5 4.875 -4.5 4.875 -7 5 C-7.66 4.34 -8.32 3.68 -9 3 C-5.83583464 -0.30799106 -4.50236011 -1.35070803 0 0 Z " fill="#229E74" transform="translate(71,79)"/>
<path d="M0 0 C-0.99 0.495 -0.99 0.495 -2 1 C-2.33 1.66 -2.66 2.32 -3 3 C-3.99 3 -4.98 3 -6 3 C-7.0209375 3.309375 -7.0209375 3.309375 -8.0625 3.625 C-8.701875 3.74875 -9.34125 3.8725 -10 4 C-10.66 3.34 -11.32 2.68 -12 2 C-4.71428571 -1.57142857 -4.71428571 -1.57142857 0 0 Z " fill="#177958" transform="translate(153,107)"/>
<path d="M0 0 C0.99 0.33 1.98 0.66 3 1 C0.63379989 3.61527381 -1.942048 5.26440562 -5 7 C-5.66 6.34 -6.32 5.68 -7 5 C-5.90554162 4.13342884 -4.79902219 3.28207276 -3.6875 2.4375 C-3.07261719 1.96183594 -2.45773438 1.48617187 -1.82421875 0.99609375 C-1.22222656 0.66738281 -0.62023437 0.33867188 0 0 Z " fill="#1F8C64" transform="translate(84,86)"/>
<path d="M0 0 C3.37462715 0.54723683 5.08235 1.0549 8 3 C8.33 3.66 8.66 4.32 9 5 C6.69 5 4.38 5 2 5 C1.34 3.35 0.68 1.7 0 0 Z " fill="#198368" transform="translate(41,250)"/>
<path d="M0 0 C0.66 0 1.32 0 2 0 C2.22162329 1.62324086 2.42689803 3.248721 2.625 4.875 C2.74101562 5.77992187 2.85703125 6.68484375 2.9765625 7.6171875 C2.98429688 8.40351562 2.99203125 9.18984375 3 10 C2.34 10.66 1.68 11.32 1 12 C0.01751476 7.9472484 -0.08159574 4.16138263 0 0 Z " fill="#1C8864" transform="translate(6,119)"/>
<path d="M0 0 C-3.82517513 2.39073445 -7.59665524 2.55966552 -12 3 C-8.61326653 -2.08010021 -5.54065966 -0.94086673 0 0 Z " fill="#219B6D" transform="translate(139,112)"/>
<path d="M0 0 C1.32 0.33 2.64 0.66 4 1 C3.67 1.99 3.34 2.98 3 4 C1.35 4.33 -0.3 4.66 -2 5 C-2 5.66 -2 6.32 -2 7 C-3.65 7 -5.3 7 -7 7 C-5.37660195 5.29115995 -3.70680947 3.62553283 -2 2 C-1.34 2 -0.68 2 0 2 C0 1.34 0 0.68 0 0 Z " fill="#1A7752" transform="translate(93,79)"/>
<path d="M0 0 C0.66 0.33 1.32 0.66 2 1 C1.34 3.97 0.68 6.94 0 10 C-2.5654594 7.4345406 -2.54046087 5.52313332 -3 2 C-2.34 2 -1.68 2 -1 2 C-0.67 1.34 -0.34 0.68 0 0 Z " fill="#1E7E5A" transform="translate(181,67)"/>
<path d="M0 0 C2 2 2 2 2.125 5.625 C2.08375 6.73875 2.0425 7.8525 2 9 C1.34 9 0.68 9 0 9 C-0.33 10.32 -0.66 11.64 -1 13 C-1.07654536 8.48382401 -1.10228696 4.40914783 0 0 Z " fill="#1B7B57" transform="translate(7,93)"/>
<path d="M0 0 C-3.26545761 1.88391785 -6.28111761 2.49287967 -10 3 C-10 2.01 -10 1.02 -10 0 C-6.42355152 -1.2380014 -3.66305234 -0.74926071 0 0 Z " fill="#24A06D" transform="translate(103,66)"/>
<path d="M0 0 C3.55780196 0.60990891 6.6828589 1.5783681 10 3 C9.67 3.66 9.34 4.32 9 5 C6.69 4.67 4.38 4.34 2 4 C2 3.34 2 2.68 2 2 C1.34 2 0.68 2 0 2 C0 1.34 0 0.68 0 0 Z " fill="#16846B" transform="translate(52,256)"/>
<path d="M0 0 C5.75 1.875 5.75 1.875 8 3 C8 3.66 8 4.32 8 5 C5.36 4.67 2.72 4.34 0 4 C-0.33 3.01 -0.66 2.02 -1 1 C-0.67 0.67 -0.34 0.34 0 0 Z " fill="#1A8265" transform="translate(68,185)"/>
<path d="M0 0 C1.53202706 0.25195908 3.05257128 0.57596777 4.5625 0.9375 C5.38878906 1.13214844 6.21507813 1.32679687 7.06640625 1.52734375 C8.02353516 1.76130859 8.02353516 1.76130859 9 2 C8.34 2.66 7.68 3.32 7 4 C1.54545455 3.54545455 1.54545455 3.54545455 -1 1 C-0.67 0.67 -0.34 0.34 0 0 Z " fill="#239F6C" transform="translate(83,109)"/>
<path d="M0 0 C0.33 0.66 0.66 1.32 1 2 C2.65 2 4.3 2 6 2 C5.67 3.32 5.34 4.64 5 6 C3.35 6 1.7 6 0 6 C-0.38218767 4.34385343 -0.71395102 2.67542976 -1 1 C-0.67 0.67 -0.34 0.34 0 0 Z " fill="#1B7954" transform="translate(76,104)"/>
<path d="M0 0 C-0.33 0.99 -0.66 1.98 -1 3 C-3.64 3.33 -6.28 3.66 -9 4 C-9 3.34 -9 2.68 -9 2 C-3.375 0 -3.375 0 0 0 Z " fill="#1F875E" transform="translate(174,6)"/>
<path d="M0 0 C1.98 0.99 1.98 0.99 4 2 C4 3.98 4 5.96 4 8 C3.34 8 2.68 8 2 8 C0.23537317 4.91190305 0 3.76687864 0 0 Z " fill="#1EC0A8" transform="translate(181,208)"/>
<path d="M0 0 C1.65 1.65 3.3 3.3 5 5 C3.02 5 1.04 5 -1 5 C-1.66 3.68 -2.32 2.36 -3 1 C-2.01 0.67 -1.02 0.34 0 0 Z " fill="#197C5D" transform="translate(87,142)"/>
<path d="M0 0 C2 0.75 2 0.75 5 2.75 C-1.625 4 -1.625 4 -5 1.75 C-2 -0.25 -2 -0.25 0 0 Z " fill="#25A979" transform="translate(100,112.25)"/>
<path d="M0 0 C-0.639375 0.28875 -1.27875 0.5775 -1.9375 0.875 C-4.15206079 1.82823451 -4.15206079 1.82823451 -5 4 C-6.32 3.67 -7.64 3.34 -9 3 C-9 2.01 -9 1.02 -9 0 C-5.62182575 -0.84454356 -3.32534757 -1.10844919 0 0 Z " fill="#2CBD8C" transform="translate(132,112)"/>
<path d="M0 0 C1.65 0.33 3.3 0.66 5 1 C4.67 1.99 4.34 2.98 4 4 C2.02 4.33 0.04 4.66 -2 5 C-1.34 3.35 -0.68 1.7 0 0 Z " fill="#28A576" transform="translate(139,54)"/>
<path d="M0 0 C0.99 0.33 1.98 0.66 3 1 C1.35 2.65 -0.3 4.3 -2 6 C-2.33 4.68 -2.66 3.36 -3 2 C-2.01 1.34 -1.02 0.68 0 0 Z " fill="#20C1AA" transform="translate(136,255)"/>
<path d="M0 0 C3.465 1.485 3.465 1.485 7 3 C5.3125 4.125 5.3125 4.125 3 5 C0.25 4.125 0.25 4.125 -2 3 C-1.34 2.67 -0.68 2.34 0 2 C0 1.34 0 0.68 0 0 Z " fill="#19754E" transform="translate(113,70)"/>
<path d="M0 0 C0.33 0.99 0.66 1.98 1 3 C0.01 3.33 -0.98 3.66 -2 4 C-2 4.66 -2 5.32 -2 6 C-3.32 6.33 -4.64 6.66 -6 7 C-4.6875 4.0625 -4.6875 4.0625 -3 1 C-2.01 0.67 -1.02 0.34 0 0 Z " fill="#0D6441" transform="translate(31,51)"/>
<path d="M0 0 C-0.33 0.99 -0.66 1.98 -1 3 C-3.97 2.67 -6.94 2.34 -10 2 C-10 1.67 -10 1.34 -10 1 C-6.59437148 0.22157062 -3.49234244 -0.09978121 0 0 Z " fill="#229D6E" transform="translate(103,20)"/>
<path d="M0 0 C-3.99560608 2.83022097 -7.42737323 1.76210446 -12 1 C-12 0.67 -12 0.34 -12 0 C-7.66726186 -0.92844389 -4.33273814 -0.92844389 0 0 Z " fill="#1F9163" transform="translate(153,14)"/>
<path d="M0 0 C2.475 0.495 2.475 0.495 5 1 C5 2.65 5 4.3 5 6 C3 6 3 6 1.375 4.6875 C0 3 0 3 0 0 Z " fill="#1A604A" transform="translate(184,0)"/>
<path d="M0 0 C2.00720923 0.28674418 4.0085944 0.61866701 6 1 C5.67 2.32 5.34 3.64 5 5 C4.01 4.67 3.02 4.34 2 4 C2 3.34 2 2.68 2 2 C1.01 1.67 0.02 1.34 -1 1 C-0.67 0.67 -0.34 0.34 0 0 Z " fill="#147A68" transform="translate(52,304)"/>
<path d="M0 0 C-0.33 0.66 -0.66 1.32 -1 2 C-3.31 2 -5.62 2 -8 2 C-8.33 1.34 -8.66 0.68 -9 0 C-5.93109813 -1.53445094 -3.29905734 -0.54984289 0 0 Z " fill="#1A8B6C" transform="translate(39,248)"/>
<path d="M0 0 C1.32 0 2.64 0 4 0 C4.66 2.31 5.32 4.62 6 7 C3.95880212 5.38405168 1.95927063 3.7143618 0 2 C0 1.34 0 0.68 0 0 Z " fill="#12806F" transform="translate(134,213)"/>
<path d="M0 0 C1.66666667 0 3.33333333 0 5 0 C6.625 2 6.625 2 8 4 C5 5 5 5 2.3125 3.6875 C1.549375 3.130625 0.78625 2.57375 0 2 C0 1.34 0 0.68 0 0 Z " fill="#12A586" transform="translate(22,160)"/>
<path d="M0 0 C0.99 0.33 1.98 0.66 3 1 C3.5625 2.9375 3.5625 2.9375 4 5 C4.66 5.66 5.32 6.32 6 7 C5.01 7 4.02 7 3 7 C0.8125 4 0.8125 4 -1 1 C-0.67 0.67 -0.34 0.34 0 0 Z " fill="#1A8763" transform="translate(18,151)"/>
<path d="M0 0 C0.99 0.495 0.99 0.495 2 1 C1.01 1.495 1.01 1.495 0 2 C0 1.34 0 0.68 0 0 Z M-2 2 C-1.34 2.33 -0.68 2.66 0 3 C-1.65 4.65 -3.3 6.3 -5 8 C-5.33 7.01 -5.66 6.02 -6 5 C-4.68 4.01 -3.36 3.02 -2 2 Z " fill="#29B37C" transform="translate(29,55)"/>
<path d="M0 0 C2.64 0.33 5.28 0.66 8 1 C7.67 1.66 7.34 2.32 7 3 C4.36 2.67 1.72 2.34 -1 2 C-0.67 1.34 -0.34 0.68 0 0 Z " fill="#15886D" transform="translate(59,306)"/>
<path d="M0 0 C2.31 0.66 4.62 1.32 7 2 C6.67 2.66 6.34 3.32 6 4 C1.25 3.25 1.25 3.25 -1 1 C-0.67 0.67 -0.34 0.34 0 0 Z " fill="#17856A" transform="translate(34,296)"/>
<path d="M0 0 C0.66 0.33 1.32 0.66 2 1 C1.34 3.31 0.68 5.62 0 8 C-0.66 7.67 -1.32 7.34 -2 7 C-1.125 2.25 -1.125 2.25 0 0 Z " fill="#186648" transform="translate(54,91)"/>
<path d="M0 0 C-3 2 -3 2 -6.1875 1.625 C-7.115625 1.41875 -8.04375 1.2125 -9 1 C-5.64919071 -1.10976881 -3.77897651 -1.0497157 0 0 Z " fill="#218D60" transform="translate(93,23)"/>
<path d="M0 0 C0.66 0.33 1.32 0.66 2 1 C0.68 1.99 -0.64 2.98 -2 4 C-1.34 2.68 -0.68 1.36 0 0 Z " fill="#00DA00" transform="translate(31,48)"/>
<path d="M0 0 C1.98 0 3.96 0 6 0 C6 0.33 6 0.66 6 1 C4.02 1 2.04 1 0 1 C0 0.67 0 0.34 0 0 Z " fill="#00B8B8" transform="translate(98,314)"/>
<path d="M0 0 C0.99 0.495 0.99 0.495 2 1 C1.67 1.66 1.34 2.32 1 3 C0.67 2.01 0.34 1.02 0 0 Z " fill="#000000" transform="translate(165,178)"/>
<path d="M0 0 C0.66 0.33 1.32 0.66 2 1 C1.01 1 0.02 1 -1 1 C-0.67 0.67 -0.34 0.34 0 0 Z " fill="#006A15" transform="translate(121,66)"/>
<path d="M0 0 C1 4 1 4 1 4 Z " fill="#354A4A" transform="translate(186,62)"/>
<path d="M0 0 C1 4 1 4 1 4 Z " fill="#00DFDF" transform="translate(188,53)"/>
<path d="M0 0 C4 1 4 1 4 1 Z " fill="#007F7F" transform="translate(83,21)"/>
<path d="M0 0 C0.66 0 1.32 0 2 0 C1.67 0.66 1.34 1.32 1 2 C0.67 1.34 0.34 0.68 0 0 Z " fill="#002A2A" transform="translate(48,305)"/>
<path d="" fill="#155555" transform="translate(0,0)"/>
<path d="M0 0 C3 1 3 1 3 1 Z " fill="#008D8D" transform="translate(119,263)"/>
<path d="M0 0 C3 1 3 1 3 1 Z " fill="#00AA55" transform="translate(75,263)"/>
<path d="" fill="#155555" transform="translate(0,0)"/>
<path d="M0 0 C0.66 0.66 1.32 1.32 2 2 C1.34 2 0.68 2 0 2 C0 1.34 0 0.68 0 0 Z " fill="#00AAAA" transform="translate(85,194)"/>
<path d="M0 0 C0.66 0.66 1.32 1.32 2 2 C1.34 2 0.68 2 0 2 C0 1.34 0 0.68 0 0 Z " fill="#005858" transform="translate(29,167)"/>
<path d="" fill="#00FFFF" transform="translate(0,0)"/>
<path d="M0 0 C3 1 3 1 3 1 Z " fill="#00D4AA" transform="translate(122,155)"/>
<path d="M0 0 C3 1 3 1 3 1 Z " fill="#005555" transform="translate(78,139)"/>
<path d="M0 0 C0.33 0.66 0.66 1.32 1 2 C0.34 1.67 -0.32 1.34 -1 1 C-0.67 0.67 -0.34 0.34 0 0 Z " fill="#009C9C" transform="translate(168,94)"/>
<path d="M0 0 C0.33 0.66 0.66 1.32 1 2 C0.34 1.67 -0.32 1.34 -1 1 C-0.67 0.67 -0.34 0.34 0 0 Z " fill="#00D4D4" transform="translate(96,69)"/>
<path d="M0 0 C0.66 0.66 1.32 1.32 2 2 C1.34 2 0.68 2 0 2 C0 1.34 0 0.68 0 0 Z " fill="#00D400" transform="translate(38,41)"/>
<path d="M0 0 C0.66 0.66 1.32 1.32 2 2 C1.34 2 0.68 2 0 2 C0 1.34 0 0.68 0 0 Z " fill="#002A2A" transform="translate(74,23)"/>
<path d="M0 0 C2 1 2 1 2 1 Z " fill="#00FFFF" transform="translate(112,313)"/>
<path d="M0 0 C2 1 2 1 2 1 Z " fill="#00FFFF" transform="translate(121,312)"/>
<path d="M0 0 C2 1 2 1 2 1 Z " fill="#000000" transform="translate(147,302)"/>
<path d="M0 0 C2 1 2 1 2 1 Z " fill="#000000" transform="translate(38,301)"/>
<path d="M0 0 C2 1 2 1 2 1 Z " fill="#000000" transform="translate(171,282)"/>
<path d="" fill="#007F00" transform="translate(0,0)"/>
<path d="" fill="#000000" transform="translate(0,0)"/>
<path d="" fill="#004040" transform="translate(0,0)"/>
<path d="" fill="#004040" transform="translate(0,0)"/>
<path d="M0 0 C2 1 2 1 2 1 Z " fill="#000000" transform="translate(134,254)"/>
<path d="M0 0 C2 1 2 1 2 1 Z " fill="#00D4D4" transform="translate(52,254)"/>
<path d="" fill="#000000" transform="translate(0,0)"/>
<path d="M0 0 C2 1 2 1 2 1 Z " fill="#00FFFF" transform="translate(33,245)"/>
<path d="" fill="#000000" transform="translate(0,0)"/>
<path d="" fill="#00FFFF" transform="translate(0,0)"/>
<path d="" fill="#007F7F" transform="translate(0,0)"/>
<path d="M0 0 C2 1 2 1 2 1 Z " fill="#007F7F" transform="translate(131,158)"/>
<path d="M0 0 C2 1 2 1 2 1 Z " fill="#00BFBF" transform="translate(76,138)"/>
<path d="M0 0 C2 1 2 1 2 1 Z " fill="#00BFBF" transform="translate(61,130)"/>
<path d="" fill="#000000" transform="translate(0,0)"/>
<path d="M0 0 C2 1 2 1 2 1 Z " fill="#000000" transform="translate(63,85)"/>
<path d="" fill="#000000" transform="translate(0,0)"/>
<path d="" fill="#00FF00" transform="translate(0,0)"/>
<path d="" fill="#000000" transform="translate(0,0)"/>
<path d="M0 0 C2 1 2 1 2 1 Z " fill="#007F7F" transform="translate(123,65)"/>
<path d="" fill="#000000" transform="translate(0,0)"/>
<path d="" fill="#00FF00" transform="translate(0,0)"/>
<path d="M0 0 C2 1 2 1 2 1 Z " fill="#000000" transform="translate(41,40)"/>
<path d="M0 0 C2 1 2 1 2 1 Z " fill="#205F40" transform="translate(44,38)"/>
<path d="M0 0 C2 1 2 1 2 1 Z " fill="#004040" transform="translate(62,29)"/>
<path d="M0 0 C2 1 2 1 2 1 Z " fill="#2AD4D4" transform="translate(90,20)"/>
<path d="M0 0 C2 1 2 1 2 1 Z " fill="#004040" transform="translate(87,20)"/>
<path d="M0 0 C2 1 2 1 2 1 Z " fill="#00FFFF" transform="translate(112,16)"/>
<path d="M0 0 C2 1 2 1 2 1 Z " fill="#2ABF55" transform="translate(147,11)"/>
<path d="M0 0 C2 1 2 1 2 1 Z " fill="#004040" transform="translate(171,4)"/>
<path d="" fill="#008080" transform="translate(0,0)"/>
<path d="" fill="#000000" transform="translate(0,0)"/>
<path d="" fill="#000000" transform="translate(0,0)"/>
<path d="" fill="#000000" transform="translate(0,0)"/>
<path d="" fill="#000000" transform="translate(0,0)"/>
<path d="" fill="#000000" transform="translate(0,0)"/>
<path d="" fill="#000000" transform="translate(0,0)"/>
<path d="" fill="#000000" transform="translate(0,0)"/>
<path d="" fill="#000000" transform="translate(0,0)"/>
<path d="" fill="#000000" transform="translate(0,0)"/>
<path d="" fill="#000000" transform="translate(0,0)"/>
<path d="" fill="#000000" transform="translate(0,0)"/>
<path d="" fill="#000000" transform="translate(0,0)"/>
<path d="" fill="#000000" transform="translate(0,0)"/>
<path d="" fill="#000000" transform="translate(0,0)"/>
<path d="" fill="#000000" transform="translate(0,0)"/>
<path d="" fill="#000000" transform="translate(0,0)"/>
<path d="" fill="#000000" transform="translate(0,0)"/>
<path d="" fill="#000000" transform="translate(0,0)"/>
<path d="" fill="#000000" transform="translate(0,0)"/>
<path d="" fill="#000000" transform="translate(0,0)"/>
<path d="" fill="#000000" transform="translate(0,0)"/>
<path d="" fill="#000000" transform="translate(0,0)"/>
<path d="" fill="#000000" transform="translate(0,0)"/>
<path d="" fill="#00FF00" transform="translate(0,0)"/>
<path d="" fill="#000000" transform="translate(0,0)"/>
<path d="" fill="#000000" transform="translate(0,0)"/>
<path d="" fill="#000000" transform="translate(0,0)"/>
<path d="" fill="#000000" transform="translate(0,0)"/>
<path d="" fill="#000000" transform="translate(0,0)"/>
<path d="" fill="#000000" transform="translate(0,0)"/>
<path d="" fill="#000000" transform="translate(0,0)"/>
<path d="" fill="#000000" transform="translate(0,0)"/>
<path d="" fill="#00FFFF" transform="translate(0,0)"/>
<path d="" fill="#008080" transform="translate(0,0)"/>
<path d="" fill="#000000" transform="translate(0,0)"/>
<path d="" fill="#000000" transform="translate(0,0)"/>
<path d="" fill="#000000" transform="translate(0,0)"/>
<path d="" fill="#000000" transform="translate(0,0)"/>
<path d="" fill="#000000" transform="translate(0,0)"/>
<path d="" fill="#000000" transform="translate(0,0)"/>
<path d="" fill="#000000" transform="translate(0,0)"/>
<path d="" fill="#000000" transform="translate(0,0)"/>
<path d="" fill="#000000" transform="translate(0,0)"/>
<path d="" fill="#000000" transform="translate(0,0)"/>
<path d="" fill="#000000" transform="translate(0,0)"/>
<path d="" fill="#000000" transform="translate(0,0)"/>
<path d="" fill="#000000" transform="translate(0,0)"/>
<path d="" fill="#000000" transform="translate(0,0)"/>
<path d="" fill="#000000" transform="translate(0,0)"/>
<path d="" fill="#000000" transform="translate(0,0)"/>
<path d="" fill="#000000" transform="translate(0,0)"/>
<path d="" fill="#000000" transform="translate(0,0)"/>
<path d="" fill="#000000" transform="translate(0,0)"/>
<path d="" fill="#000000" transform="translate(0,0)"/>
<path d="" fill="#000000" transform="translate(0,0)"/>
<path d="" fill="#000000" transform="translate(0,0)"/>
<path d="" fill="#000000" transform="translate(0,0)"/>
<path d="" fill="#000000" transform="translate(0,0)"/>
<path d="" fill="#000000" transform="translate(0,0)"/>
<path d="" fill="#000000" transform="translate(0,0)"/>
<path d="" fill="#000000" transform="translate(0,0)"/>
<path d="" fill="#000000" transform="translate(0,0)"/>
<path d="" fill="#000000" transform="translate(0,0)"/>
<path d="" fill="#000000" transform="translate(0,0)"/>
<path d="" fill="#000000" transform="translate(0,0)"/>
<path d="" fill="#000000" transform="translate(0,0)"/>
<path d="" fill="#000000" transform="translate(0,0)"/>
<path d="" fill="#000000" transform="translate(0,0)"/>
<path d="" fill="#000000" transform="translate(0,0)"/>
<path d="" fill="#000000" transform="translate(0,0)"/>
<path d="" fill="#000000" transform="translate(0,0)"/>
<path d="" fill="#000000" transform="translate(0,0)"/>
<path d="" fill="#000000" transform="translate(0,0)"/>
<path d="" fill="#000000" transform="translate(0,0)"/>
<path d="" fill="#000000" transform="translate(0,0)"/>
<path d="" fill="#000000" transform="translate(0,0)"/>
<path d="" fill="#000000" transform="translate(0,0)"/>
<path d="" fill="#000000" transform="translate(0,0)"/>
<path d="" fill="#000000" transform="translate(0,0)"/>
<path d="" fill="#000000" transform="translate(0,0)"/>
<path d="" fill="#000000" transform="translate(0,0)"/>
<path d="" fill="#000000" transform="translate(0,0)"/>
<path d="" fill="#000000" transform="translate(0,0)"/>
<path d="" fill="#000000" transform="translate(0,0)"/>
<path d="" fill="#000000" transform="translate(0,0)"/>
<path d="" fill="#000000" transform="translate(0,0)"/>
<path d="" fill="#000000" transform="translate(0,0)"/>
<path d="" fill="#000000" transform="translate(0,0)"/>
<path d="" fill="#000000" transform="translate(0,0)"/>
<path d="" fill="#000000" transform="translate(0,0)"/>
<path d="" fill="#000000" transform="translate(0,0)"/>
<path d="" fill="#000000" transform="translate(0,0)"/>
<path d="" fill="#000000" transform="translate(0,0)"/>
<path d="" fill="#000000" transform="translate(0,0)"/>
<path d="" fill="#000000" transform="translate(0,0)"/>
<path d="" fill="#000000" transform="translate(0,0)"/>
<path d="" fill="#000000" transform="translate(0,0)"/>
<path d="" fill="#000000" transform="translate(0,0)"/>
<path d="" fill="#000000" transform="translate(0,0)"/>
<path d="" fill="#000000" transform="translate(0,0)"/>
<path d="" fill="#000000" transform="translate(0,0)"/>
<path d="" fill="#000000" transform="translate(0,0)"/>
<path d="" fill="#000000" transform="translate(0,0)"/>
<path d="" fill="#000000" transform="translate(0,0)"/>
<path d="" fill="#000000" transform="translate(0,0)"/>
<path d="" fill="#000000" transform="translate(0,0)"/>
<path d="" fill="#000000" transform="translate(0,0)"/>
<path d="" fill="#000000" transform="translate(0,0)"/>
<path d="" fill="#000000" transform="translate(0,0)"/>
<path d="" fill="#000000" transform="translate(0,0)"/>
<path d="" fill="#00FFFF" transform="translate(0,0)"/>
<path d="" fill="#000000" transform="translate(0,0)"/>
<path d="" fill="#000000" transform="translate(0,0)"/>
<path d="" fill="#000000" transform="translate(0,0)"/>
<path d="" fill="#000000" transform="translate(0,0)"/>
<path d="" fill="#000000" transform="translate(0,0)"/>
<path d="" fill="#000000" transform="translate(0,0)"/>
<path d="" fill="#000000" transform="translate(0,0)"/>
<path d="" fill="#000000" transform="translate(0,0)"/>
<path d="" fill="#000000" transform="translate(0,0)"/>
<path d="" fill="#000000" transform="translate(0,0)"/>
<path d="" fill="#000000" transform="translate(0,0)"/>
<path d="" fill="#000000" transform="translate(0,0)"/>
<path d="" fill="#000000" transform="translate(0,0)"/>
<path d="" fill="#000000" transform="translate(0,0)"/>
<path d="" fill="#000000" transform="translate(0,0)"/>
<path d="" fill="#000000" transform="translate(0,0)"/>
<path d="" fill="#000000" transform="translate(0,0)"/>
<path d="" fill="#000000" transform="translate(0,0)"/>
<path d="" fill="#000000" transform="translate(0,0)"/>
<path d="" fill="#000000" transform="translate(0,0)"/>
<path d="" fill="#000000" transform="translate(0,0)"/>
<path d="" fill="#000000" transform="translate(0,0)"/>
<path d="" fill="#000000" transform="translate(0,0)"/>
<path d="" fill="#00FFFF" transform="translate(0,0)"/>
<path d="" fill="#000000" transform="translate(0,0)"/>
<path d="" fill="#000000" transform="translate(0,0)"/>
<path d="" fill="#000000" transform="translate(0,0)"/>
<path d="" fill="#000000" transform="translate(0,0)"/>
<path d="" fill="#000000" transform="translate(0,0)"/>
<path d="" fill="#000000" transform="translate(0,0)"/>
<path d="" fill="#00FFFF" transform="translate(0,0)"/>
<path d="" fill="#000000" transform="translate(0,0)"/>
<path d="" fill="#000000" transform="translate(0,0)"/>
<path d="" fill="#000000" transform="translate(0,0)"/>
<path d="" fill="#000000" transform="translate(0,0)"/>
<path d="" fill="#000000" transform="translate(0,0)"/>
<path d="" fill="#000000" transform="translate(0,0)"/>
<path d="" fill="#000000" transform="translate(0,0)"/>
<path d="" fill="#000000" transform="translate(0,0)"/>
<path d="" fill="#000000" transform="translate(0,0)"/>
<path d="" fill="#00FFFF" transform="translate(0,0)"/>
<path d="" fill="#000000" transform="translate(0,0)"/>
<path d="" fill="#000000" transform="translate(0,0)"/>
<path d="" fill="#000000" transform="translate(0,0)"/>
<path d="" fill="#000000" transform="translate(0,0)"/>
<path d="" fill="#000000" transform="translate(0,0)"/>
<path d="" fill="#000000" transform="translate(0,0)"/>
<path d="" fill="#000000" transform="translate(0,0)"/>
<path d="" fill="#000000" transform="translate(0,0)"/>
<path d="" fill="#000000" transform="translate(0,0)"/>
<path d="" fill="#000000" transform="translate(0,0)"/>
<path d="" fill="#000000" transform="translate(0,0)"/>
<path d="" fill="#000000" transform="translate(0,0)"/>
<path d="" fill="#000000" transform="translate(0,0)"/>
<path d="" fill="#000000" transform="translate(0,0)"/>
<path d="" fill="#000000" transform="translate(0,0)"/>
<path d="" fill="#000000" transform="translate(0,0)"/>
<path d="" fill="#000000" transform="translate(0,0)"/>
<path d="" fill="#000000" transform="translate(0,0)"/>
<path d="" fill="#000000" transform="translate(0,0)"/>
<path d="" fill="#000000" transform="translate(0,0)"/>
<path d="" fill="#000000" transform="translate(0,0)"/>
<path d="" fill="#00FFFF" transform="translate(0,0)"/>
<path d="" fill="#000000" transform="translate(0,0)"/>
<path d="" fill="#000000" transform="translate(0,0)"/>
<path d="" fill="#000000" transform="translate(0,0)"/>
<path d="" fill="#000000" transform="translate(0,0)"/>
<path d="" fill="#000000" transform="translate(0,0)"/>
<path d="" fill="#000000" transform="translate(0,0)"/>
<path d="" fill="#000000" transform="translate(0,0)"/>
<path d="" fill="#000000" transform="translate(0,0)"/>
<path d="" fill="#000000" transform="translate(0,0)"/>
<path d="" fill="#000000" transform="translate(0,0)"/>
<path d="" fill="#000000" transform="translate(0,0)"/>
<path d="" fill="#000000" transform="translate(0,0)"/>
<path d="" fill="#000000" transform="translate(0,0)"/>
<path d="" fill="#000000" transform="translate(0,0)"/>
<path d="" fill="#000000" transform="translate(0,0)"/>
<path d="" fill="#00FFFF" transform="translate(0,0)"/>
<path d="" fill="#00FFFF" transform="translate(0,0)"/>
<path d="" fill="#000000" transform="translate(0,0)"/>
<path d="" fill="#000000" transform="translate(0,0)"/>
<path d="" fill="#000000" transform="translate(0,0)"/>
<path d="" fill="#000000" transform="translate(0,0)"/>
<path d="" fill="#000000" transform="translate(0,0)"/>
<path d="" fill="#000000" transform="translate(0,0)"/>
<path d="" fill="#000000" transform="translate(0,0)"/>
<path d="" fill="#000000" transform="translate(0,0)"/>
<path d="" fill="#000000" transform="translate(0,0)"/>
<path d="" fill="#000000" transform="translate(0,0)"/>
<path d="" fill="#000000" transform="translate(0,0)"/>
<path d="" fill="#000000" transform="translate(0,0)"/>
<path d="" fill="#000000" transform="translate(0,0)"/>
<path d="" fill="#000000" transform="translate(0,0)"/>
<path d="" fill="#000000" transform="translate(0,0)"/>
<path d="" fill="#000000" transform="translate(0,0)"/>
<path d="" fill="#000000" transform="translate(0,0)"/>
<path d="" fill="#000000" transform="translate(0,0)"/>
<path d="" fill="#000000" transform="translate(0,0)"/>
<path d="" fill="#000000" transform="translate(0,0)"/>
<path d="" fill="#000000" transform="translate(0,0)"/>
<path d="" fill="#000000" transform="translate(0,0)"/>
<path d="" fill="#000000" transform="translate(0,0)"/>
</svg>
