<svg width="256" height="256" viewBox="0 0 256 256" fill="none" xmlns="http://www.w3.org/2000/svg">
  <defs>
    <linearGradient id="shiftlyGradient" x1="42" y1="22" x2="203" y2="233" gradientUnits="userSpaceOnUse">
      <stop stop-color="#55E8A9"/>
      <stop offset="1" stop-color="#28C8D4"/>
    </linearGradient>
  </defs>
  <path d="M177.92 31.56C171.89 41.16 159.68 56.07 137.65 70.91C125.51 79.08 114.67 87.79 106.84 97.63C98.58 108 94.22 119.06 94.22 130.73C94.22 142.4 98.58 153.46 106.84 163.83C112.87 171.4 121.07 178.39 130.96 184.89C147.8 195.95 161.17 206.49 171.08 216.68C155.38 216.68 138.93 211.55 123.6 201.01C110.11 191.74 98.95 179.6 91.31 166.09C83.44 152.17 79.45 137.35 79.45 122.22C79.45 108.43 83.34 94.82 91.05 82.1C98.68 69.52 109.91 58.15 123.45 49.22C141.74 37.15 160.45 30.49 177.92 31.56Z" fill="url(#shiftlyGradient)"/>
  <path d="M79.8 232.92C85.66 223.07 97.72 207.82 120.1 192.65C132.37 184.34 143.39 175.47 151.43 165.49C159.91 154.96 164.36 143.77 164.36 131.99C164.36 120.21 159.91 109.02 151.43 98.49C145.24 90.82 136.85 83.76 126.71 77.27C109.46 66.22 95.79 55.75 85.66 45.67C101.58 45.67 118.23 50.75 133.72 61.17C147.35 70.35 158.66 82.44 166.38 95.95C174.33 109.86 178.35 124.71 178.35 139.91C178.35 153.77 174.41 167.46 166.6 180.25C158.88 192.88 147.52 204.27 133.84 213.18C115.34 225.21 97.42 231.84 79.8 232.92Z" fill="url(#shiftlyGradient)"/>
</svg>
